<svg width="27" height="26" viewBox="0 0 27 26" fill="none" xmlns="http://www.w3.org/2000/svg">
<path d="M13.5013 0.583313C6.36481 0.583313 0.5846 6.36352 0.5846 13.5C0.582261 16.2116 1.4342 18.855 3.01946 21.0549C4.60472 23.2549 6.84273 24.8995 9.41573 25.7553C10.0616 25.8677 10.3044 25.4802 10.3044 25.1405C10.3044 24.8344 10.2876 23.8178 10.2876 22.7354C7.04293 23.3334 6.20335 21.9449 5.94502 21.2177C5.79906 20.8457 5.17002 19.7 4.62106 19.3926C4.16897 19.151 3.52314 18.553 4.60427 18.5375C5.6221 18.5207 6.34802 19.4739 6.59085 19.8614C7.75335 21.8144 9.60948 21.2655 10.3522 20.9271C10.4658 20.0875 10.8043 19.523 11.1763 19.2001C8.30231 18.8772 5.29918 17.7625 5.29918 12.8219C5.29918 11.4165 5.79906 10.2553 6.62314 9.35115C6.49398 9.02823 6.04189 7.70427 6.75231 5.92823C6.75231 5.92823 7.83343 5.58852 10.3044 7.2509C11.356 6.95981 12.4424 6.81337 13.5336 6.8156C14.6315 6.8156 15.7294 6.96027 16.7627 7.2509C19.2337 5.57173 20.3148 5.92823 20.3148 5.92823C21.0252 7.70427 20.5731 9.02823 20.444 9.35115C21.2668 10.2553 21.7679 11.401 21.7679 12.8219C21.7679 17.7793 18.7493 18.8772 15.8753 19.2001C16.3429 19.6031 16.7472 20.3781 16.7472 21.5897C16.7472 23.3166 16.7304 24.7052 16.7304 25.1418C16.7304 25.4802 16.9733 25.8832 17.6191 25.754C20.1824 24.8874 22.4097 23.2393 23.9877 21.0412C25.5658 18.8432 26.4152 16.2058 26.4166 13.5C26.4166 6.36352 20.6364 0.583313 13.5 0.583313" fill="black"/>
</svg>
