<svg width="26" height="26" viewBox="0 0 26 26" fill="none" xmlns="http://www.w3.org/2000/svg">
<path d="M13.0012 9.18783C12.0247 9.18783 11.0883 9.59659 10.3978 10.3242C9.70731 11.0518 9.31941 12.0386 9.31941 13.0676C9.31941 14.0965 9.70731 15.0834 10.3978 15.8109C11.0883 16.5385 12.0247 16.9473 13.0012 16.9473C13.9777 16.9473 14.9142 16.5385 15.6047 15.8109C16.2951 15.0834 16.683 14.0965 16.683 13.0676C16.683 12.0386 16.2951 11.0518 15.6047 10.3242C14.9142 9.59659 13.9777 9.18783 13.0012 9.18783ZM13.0012 6.60135C14.6287 6.60135 16.1895 7.28261 17.3403 8.49526C18.4911 9.70791 19.1376 11.3526 19.1376 13.0676C19.1376 14.7825 18.4911 16.4272 17.3403 17.6399C16.1895 18.8525 14.6287 19.5338 13.0012 19.5338C11.3738 19.5338 9.81295 18.8525 8.66216 17.6399C7.51137 16.4272 6.86486 14.7825 6.86486 13.0676C6.86486 11.3526 7.51137 9.70791 8.66216 8.49526C9.81295 7.28261 11.3738 6.60135 13.0012 6.60135ZM20.9785 6.27804C20.9785 6.70677 20.8169 7.11795 20.5292 7.42111C20.2415 7.72428 19.8513 7.89459 19.4444 7.89459C19.0375 7.89459 18.6473 7.72428 18.3596 7.42111C18.0719 7.11795 17.9103 6.70677 17.9103 6.27804C17.9103 5.8493 18.0719 5.43812 18.3596 5.13496C18.6473 4.8318 19.0375 4.66148 19.4444 4.66148C19.8513 4.66148 20.2415 4.8318 20.5292 5.13496C20.8169 5.43812 20.9785 5.8493 20.9785 6.27804ZM13.0012 2.72162C9.96495 2.72162 9.46914 2.73067 8.05655 2.79663C7.09436 2.84448 6.44882 2.98027 5.84991 3.22598C5.34898 3.42045 4.89597 3.73117 4.52445 4.13513C4.14065 4.52649 3.84536 5.00385 3.66045 5.53184C3.42727 6.16552 3.29841 6.84448 3.25423 7.85709C3.19041 9.28483 3.18182 9.78402 3.18182 13.0676C3.18182 16.2683 3.19041 16.7895 3.253 18.278C3.29841 19.2906 3.42727 19.9722 3.65923 20.602C3.86786 21.1646 4.11332 21.5693 4.52077 21.9987C4.93436 22.4332 5.3185 22.6932 5.84623 22.9079C6.4525 23.1549 7.09805 23.2919 8.05532 23.3385C9.41023 23.4057 9.88395 23.4135 13 23.4135C16.0375 23.4135 16.5321 23.4045 17.9447 23.3385C18.9044 23.2906 19.55 23.1549 20.1501 22.9104C20.651 22.716 21.104 22.4053 21.4755 22.0013C21.8891 21.5668 22.1358 21.162 22.3395 20.6046C22.5727 19.9683 22.7028 19.2881 22.747 18.2767C22.8108 16.8503 22.8182 16.3498 22.8182 13.0676C22.8182 9.86808 22.8096 9.34561 22.747 7.85709C22.7016 6.84577 22.5715 6.16294 22.3395 5.53184C22.155 5.00398 21.8601 4.52662 21.4768 4.13513C21.1054 3.7307 20.6524 3.41953 20.1513 3.22469C19.55 2.97897 18.9044 2.84318 17.9447 2.79663C16.591 2.72938 16.1173 2.72162 13 2.72162M13 0.135132C16.3345 0.135132 16.7505 0.148064 18.06 0.212726C19.3659 0.277389 20.2569 0.49336 21.0386 0.814085C21.8486 1.14257 22.531 1.58744 23.2134 2.30519C23.8377 2.95147 24.3206 3.73355 24.6284 4.59682C24.9315 5.42062 25.1377 6.35951 25.1991 7.73681C25.2568 9.11541 25.2727 9.55382 25.2727 13.0676C25.2727 16.5813 25.2605 17.0197 25.1991 18.3983C25.1377 19.7769 24.9315 20.7132 24.6284 21.5383C24.3206 22.4016 23.8377 23.1837 23.2134 23.8299C22.6001 24.4878 21.8579 24.9967 21.0386 25.321C20.2569 25.6405 19.3659 25.8577 18.06 25.9224C16.7505 25.9832 16.3345 26 13 26C9.6655 26 9.24945 25.9871 7.93995 25.9224C6.63414 25.8577 5.74436 25.6405 4.96136 25.321C4.14212 24.9967 3.39994 24.4878 2.78664 23.8299C2.16233 23.1837 1.67941 22.4016 1.37159 21.5383C1.06723 20.7145 0.862272 19.7756 0.800908 18.3983C0.741999 17.0197 0.727272 16.5813 0.727272 13.0676C0.727272 9.55382 0.739545 9.11541 0.800908 7.73681C0.862272 6.35822 1.06723 5.42191 1.37159 4.59682C1.67941 3.73355 2.16233 2.95147 2.78664 2.30519C3.39994 1.64733 4.14212 1.13845 4.96136 0.814085C5.74314 0.49336 6.63291 0.277389 7.93995 0.212726C9.25068 0.151944 9.66673 0.135132 13.0012 0.135132" fill="black"/>
</svg>
