<svg width="26" height="25" viewBox="0 0 26 25" fill="none" xmlns="http://www.w3.org/2000/svg">
<path d="M23.1111 0C23.8773 0 24.6121 0.292658 25.1539 0.813592C25.6956 1.33453 26 2.04107 26 2.77778V22.2222C26 22.9589 25.6956 23.6655 25.1539 24.1864C24.6121 24.7073 23.8773 25 23.1111 25H2.88889C2.12271 25 1.38791 24.7073 0.846136 24.1864C0.304364 23.6655 0 22.9589 0 22.2222V2.77778C0 2.04107 0.304364 1.33453 0.846136 0.813592C1.38791 0.292658 2.12271 0 2.88889 0H23.1111ZM22.3889 21.5278V14.1667C22.3889 12.9658 21.8928 11.8142 21.0097 10.965C20.1266 10.1159 18.9289 9.63889 17.68 9.63889C16.4522 9.63889 15.0222 10.3611 14.3289 11.4444V9.90278H10.2989V21.5278H14.3289V14.6806C14.3289 13.6111 15.2244 12.7361 16.3367 12.7361C16.873 12.7361 17.3874 12.941 17.7666 13.3056C18.1458 13.6703 18.3589 14.1649 18.3589 14.6806V21.5278H22.3889ZM5.60444 7.72222C6.24804 7.72222 6.86527 7.47639 7.32036 7.03881C7.77545 6.60122 8.03111 6.00773 8.03111 5.38889C8.03111 4.09722 6.94778 3.04167 5.60444 3.04167C4.95702 3.04167 4.33612 3.28896 3.87832 3.72915C3.42052 4.16934 3.16333 4.76637 3.16333 5.38889C3.16333 6.68056 4.26111 7.72222 5.60444 7.72222ZM7.61222 21.5278V9.90278H3.61111V21.5278H7.61222Z" fill="black"/>
</svg>
