<svg width="35" height="35" viewBox="0 0 35 35" fill="none" xmlns="http://www.w3.org/2000/svg">
<path d="M4.375 10.2084C4.375 9.43481 4.68229 8.69294 5.22927 8.14596C5.77625 7.59898 6.51812 7.29169 7.29167 7.29169H27.7083C28.4819 7.29169 29.2237 7.59898 29.7707 8.14596C30.3177 8.69294 30.625 9.43481 30.625 10.2084V24.7917C30.625 25.5652 30.3177 26.3071 29.7707 26.8541C29.2237 27.4011 28.4819 27.7084 27.7083 27.7084H7.29167C6.51812 27.7084 5.77625 27.4011 5.22927 26.8541C4.68229 26.3071 4.375 25.5652 4.375 24.7917V10.2084Z" stroke="black" stroke-width="2.08333" stroke-linecap="round" stroke-linejoin="round"/>
<path d="M4.375 10.2084L17.5 18.9584L30.625 10.2084" stroke="black" stroke-width="2.08333" stroke-linecap="round" stroke-linejoin="round"/>
</svg>
