<svg width="39" height="36" viewBox="0 0 39 36" fill="none" xmlns="http://www.w3.org/2000/svg">
<path d="M2.89586 0.422108C2.48587 0.424594 2.08106 0.518723 1.70823 0.698265C1.3354 0.877807 1.00305 1.13866 0.733182 1.46357C0.463318 1.78847 0.262096 2.17001 0.142839 2.58293C0.0235823 2.99584 -0.01099 3.43071 0.0414114 3.85875C1.82266 18.39 1.82266 17.61 0.0414114 32.1413C-0.023487 32.6714 0.0452566 33.2103 0.24074 33.7036C0.436223 34.197 0.751567 34.6276 1.15511 34.9521C1.55866 35.2766 2.03621 35.4837 2.53983 35.5525C3.04344 35.6214 3.55539 35.5495 4.02429 35.3442L37.2001 20.813C37.7277 20.5816 38.1785 20.191 38.4956 19.6905C38.8126 19.1899 38.9819 18.6017 38.9819 18C38.9819 17.3983 38.8126 16.8101 38.4956 16.3095C38.1785 15.809 37.7277 15.4184 37.2001 15.187L4.02429 0.655781C3.66678 0.499226 3.28307 0.419767 2.89586 0.422108Z" fill="white"/>
</svg>
